# xmcd
#
# Track frame offsets: 
#        150
#        38525
#        85769
#        120668
#        182386
#        229490
#        279559
#
# Disc length: 4214 seconds
#
# Revision: 1
# Processed by: cddbd v1.5.2PL0 Copyright (c) Steve Scherf et al.
# Submitted via: ExactAudioCopy v1.1
#
DISCID=51107407
DTITLE=Jorma Kaukonen and Jack Casady - Before We Were Them - Vets Memor
DTITLE=ial Bldg., Santa Rosa, CA, 6-28-69
DYEAR=2018
DGENRE=Rock
TTITLE0=Rock Me Baby (live) (stereo)
TTITLE1=Turnaround (live) (stereo)
TTITLE2=Star Track (live) (stereo)
TTITLE3=Through the Golden Gate (live) (stereo)
TTITLE4=Come Back Baby (live) (stereo)
TTITLE5=Through The Grove (live) (stereo)
TTITLE6=Inspiration In The Hall Of Arrivals (live) (stereo)
EXTD=
EXTT0=
EXTT1=
EXTT2=
EXTT3=
EXTT4=
EXTT5=
EXTT6=
PLAYORDER=
